<svg xmlns="http://www.w3.org/2000/svg" width="48" height="48" fill="none">
  <path fill="#ffffff" fill-rule="evenodd"
    d="M7.177 9.12a.622.622 0 0 0-.984.505v8.64l7.802 5.201.003.002 2.664 1.758-.062-.084 6.357-4.674L7.177 9.12Zm16.829 10.57L7.903 8.111C6.67 7.224 4.95 8.105 4.95 9.625v29.398c0 1.561 1.804 2.431 3.026 1.46l5.595-4.447c.445-.354.704-.892.704-1.46V25.14l8.676 5.726c.65.43 1.5.409 2.13-.053l7.638-5.601v9.938c0 .608.297 1.179.795 1.528l5.803 4.061c1.236.866 2.934-.019 2.934-1.527V9.692c0-1.538-1.757-2.415-2.986-1.49L24.006 19.69Zm8.712 3.98v-8.983l-8.335 6.276-6.708 4.932 5.96 3.933c.216.143.5.136.71-.017l8.373-6.14Zm1.137-9.84h.106v21.32c0 .203.1.393.265.51l5.803 4.06a.622.622 0 0 0 .978-.508V9.692a.622.622 0 0 0-.995-.496l-6.157 4.635ZM13.031 24.319l-6.838-4.56v19.265c0 .52.6.81 1.008.487l5.595-4.448a.621.621 0 0 0 .235-.486V24.317Z"
    clip-rule="evenodd" />
  <path fill="#ffffff" fill-rule="evenodd"
    d="M9.715 21.084c.344 0 .622.279.622.622v7.46a.622.622 0 1 1-1.243 0v-7.46c0-.343.278-.622.621-.622ZM5.054 12.657a.622.622 0 0 1 .862-.172l6.217 4.144a.622.622 0 0 1-.69 1.035l-6.217-4.145a.622.622 0 0 1-.172-.862ZM16.67 20.516c.2-.28.588-.344.868-.145l2.901 2.073a.622.622 0 0 1-.723 1.011l-2.9-2.072a.622.622 0 0 1-.145-.867ZM25.978 24.256c.193.284.12.67-.163.864l-4.973 3.398a.622.622 0 0 1-.702-1.027l4.974-3.397a.622.622 0 0 1 .864.162ZM33.861 18.88a.622.622 0 0 1-.182.86l-3.316 2.155a.622.622 0 1 1-.678-1.043l3.316-2.154a.622.622 0 0 1 .86.182ZM37.485 9.894c.343 0 .622.278.622.621v6.6a.622.622 0 1 1-1.244 0v-6.6c0-.343.279-.621.622-.621Z"
    clip-rule="evenodd" />
  <path fill="#ffffff" fill-rule="evenodd"
    d="M37.484 17.768a.622.622 0 1 0 0 1.244.622.622 0 0 0 0-1.244Zm-1.865.622a1.865 1.865 0 1 1 3.73 0 1.865 1.865 0 0 1-3.73 0ZM26.709 23.156a.622.622 0 1 0 0 1.244.622.622 0 0 0 0-1.244Zm-1.865.622a1.865 1.865 0 1 1 3.73 0 1.865 1.865 0 0 1-3.73 0ZM13.031 17.354a.622.622 0 1 0 0 1.243.622.622 0 0 0 0-1.243Zm-1.865.621a1.865 1.865 0 1 1 3.73 0 1.865 1.865 0 0 1-3.73 0ZM9.715 29.788a.622.622 0 1 0 0 1.243.622.622 0 0 0 0-1.243Zm-1.865.622a1.865 1.865 0 1 1 3.73 0 1.865 1.865 0 0 1-3.73 0ZM37.484 31.86a.622.622 0 1 0 0 1.244.622.622 0 0 0 0-1.244Zm-1.865.622a1.865 1.865 0 1 1 3.73 0 1.865 1.865 0 0 1-3.73 0ZM37.485 22.742c.343 0 .622.279.622.622v4.973a.622.622 0 1 1-1.244 0v-4.973c0-.343.279-.622.622-.622Z"
    clip-rule="evenodd" />
  <path fill="#ffffff" fill-rule="evenodd"
    d="M37.485 33.518c.343 0 .622.278.622.622v4.559a.622.622 0 1 1-1.244 0v-4.56c0-.343.279-.62.622-.62ZM9.715 33.933c.344 0 .622.278.622.621v3.73a.622.622 0 0 1-1.243 0v-3.73c0-.343.278-.621.621-.621Z"
    clip-rule="evenodd" />
</svg>