<svg xmlns="http://www.w3.org/2000/svg" width="200" height="200" viewBox="0 0 200 200" fill="none">
  <g clip-path="url(#clip0_2169_24210)">
    <path
      d="M5.21519 45.7047C6.47621 44.0979 9.00685 42.8602 10.879 42.9384C11.1552 42.9283 11.4307 42.9738 11.6893 43.0723C11.9479 43.1707 12.1845 43.32 12.3854 43.5116C15.8026 41.514 19.7363 40.2894 22.9857 40.424C24.6383 40.4891 25.9209 40.9017 26.8075 41.5748C30.4786 38.561 35.1569 36.4201 38.5526 36.4201C40.4807 36.4201 41.6772 37.1149 42.1033 38.2657C45.8691 36.242 49.7382 35 52.8628 35C57.838 35 59.452 38.1571 57.4163 42.5953C58.234 43.4335 62.1505 44.6017 61.9955 46H5C5.06886 45.8914 5.12481 45.7916 5.21519 45.7047Z"
      fill="#4A525E" />
    <path
      d="M120.372 180.631C120.695 180.618 121.015 180.682 121.305 180.816C121.596 180.95 121.847 181.15 122.037 181.4C126.074 178.719 130.626 177.072 134.291 177.255C135.857 177.25 137.37 177.8 138.538 178.8C142.922 174.781 148.396 171.911 152.241 171.911C154.433 171.911 155.738 172.841 156.128 174.385C160.554 171.67 165.034 170 168.579 170C172.963 170 174.904 172.566 174.299 176.503C176.413 175.355 178.491 174.684 180.18 174.684C182.522 174.684 183.624 175.975 183.432 178.007C183.636 178.007 183.84 178.007 184.031 178.036C187.625 178.375 188.978 180.998 187.259 184H114C115.605 182.008 118.366 180.533 120.372 180.631Z"
      fill="#677892" fill-opacity="0.4" />
    <path
      d="M71.1486 71.663C72.0136 74.0066 72.1637 76.5543 71.5801 78.9833C70.9964 81.4124 69.7051 83.6137 67.8697 85.3085C66.0343 87.0033 63.7373 88.1154 61.2695 88.504C58.8017 88.8927 56.2741 88.5404 54.0066 87.4917C51.7391 86.4431 49.8338 84.7452 48.5318 82.6131C47.2298 80.481 46.5897 78.0106 46.6925 75.5145C46.7953 73.0184 47.6363 70.6089 49.1093 68.5911C50.5822 66.5732 52.6207 65.0378 54.9667 64.1792C58.1052 63.0304 61.5712 63.1732 64.6046 64.5761C67.6381 65.979 69.9914 68.5275 71.1486 71.663Z"
      fill="white" />
    <path opacity="0.1"
      d="M71.1486 71.663C72.0136 74.0066 72.1637 76.5543 71.5801 78.9833C70.9964 81.4124 69.7051 83.6137 67.8697 85.3085C66.0343 87.0033 63.7373 88.1154 61.2695 88.504C58.8017 88.8927 56.2741 88.5404 54.0066 87.4917C51.7391 86.4431 49.8338 84.7452 48.5318 82.6131C47.2298 80.481 46.5897 78.0106 46.6925 75.5145C46.7953 73.0184 47.6363 70.6089 49.1093 68.5911C50.5822 66.5732 52.6207 65.0378 54.9667 64.1792C58.1052 63.0304 61.5712 63.1732 64.6046 64.5761C67.6381 65.979 69.9914 68.5275 71.1486 71.663Z"
      fill="#FAFAFA" />
    <path
      d="M118.149 78.1815C116.787 75.8679 114.933 73.8822 112.717 72.3652C110.502 70.8482 107.981 69.837 105.331 69.4033C105.281 69.2727 105.251 69.1346 105.202 68.9978C103.733 64.946 100.88 61.5427 97.1478 59.3875C93.4152 57.2322 89.0418 56.4633 84.798 57.216C80.5541 57.9687 76.7119 60.1948 73.9483 63.5023C71.1846 66.8098 69.6767 70.9864 69.6902 75.2965C69.0908 75.4087 68.5014 75.5691 67.9278 75.776C65.8704 76.5324 64.0871 77.8885 62.8085 79.669C61.53 81.4495 60.8148 83.5726 60.7555 85.7638C58.1859 86.0694 55.7766 87.1722 53.866 88.9174C51.9211 90.6405 50.5222 92.8944 49.8412 95.402C49.1603 97.9096 49.2271 100.561 50.0333 103.032C50.6023 104.681 51.495 106.2 52.659 107.5C53.823 108.8 55.2349 109.854 56.8118 110.601C58.3888 111.348 60.099 111.772 61.8422 111.85C63.5853 111.927 65.3263 111.655 66.963 111.05L91.2546 102.078L113.51 93.8598C115.977 92.976 117.996 91.1564 119.131 88.7947C120.266 86.4331 120.426 83.7194 119.575 81.2412L119.542 81.1413C119.168 80.1146 118.702 79.1239 118.149 78.1815Z"
      fill="white" />
    <path opacity="0.3"
      d="M118.149 78.1815C116.787 75.8679 114.933 73.8822 112.717 72.3652C110.502 70.8482 107.981 69.837 105.331 69.4033C105.281 69.2727 105.251 69.1346 105.202 68.9978C103.733 64.946 100.88 61.5427 97.1478 59.3875C93.4152 57.2322 89.0418 56.4633 84.798 57.216C80.5541 57.9687 76.7119 60.1948 73.9483 63.5023C71.1846 66.8098 69.6767 70.9864 69.6902 75.2965C69.0908 75.4087 68.5014 75.5691 67.9278 75.776C65.8704 76.5324 64.0871 77.8885 62.8085 79.669C61.53 81.4495 60.8148 83.5726 60.7555 85.7638C58.1859 86.0694 55.7766 87.1722 53.866 88.9174C51.9211 90.6405 50.5222 92.8944 49.8412 95.402C49.1603 97.9096 49.2271 100.561 50.0333 103.032C50.6023 104.681 51.495 106.2 52.659 107.5C53.823 108.8 55.2349 109.854 56.8118 110.601C58.3888 111.348 60.099 111.772 61.8422 111.85C63.5853 111.927 65.3263 111.655 66.963 111.05L91.2546 102.078L113.51 93.8598C115.977 92.976 117.996 91.1564 119.131 88.7947C120.266 86.4331 120.426 83.7194 119.575 81.2412L119.542 81.1413C119.168 80.1146 118.702 79.1239 118.149 78.1815Z"
      fill="black" />
    <g style="mix-blend-mode:multiply">
      <path d="M114.719 35.4029L14.7197 68.2549L45.8144 162.905L145.814 130.053L114.719 35.4029Z" fill="white" />
    </g>
    <path d="M114.719 35.4029L14.7197 68.2549L45.8144 162.905L145.814 130.053L114.719 35.4029Z" fill="#79808E" />
    <path d="M114.138 36.566L14.1387 69.418L45.2334 164.069L145.233 131.217L114.138 36.566Z"
      fill="url(#paint0_linear_2169_24210)" />
    <path d="M109.364 46.3694L23.792 74.4814L45.21 139.677L130.782 111.565L109.364 46.3694Z" fill="white" />
    <path opacity="0.8" d="M109.364 46.3694L23.792 74.4814L45.21 139.677L130.782 111.565L109.364 46.3694Z"
      fill="#353E4E" />
    <path
      d="M67.6127 94.237C70.7372 88.02 68.2303 80.4472 62.0134 77.3226C55.7964 74.198 48.2235 76.7049 45.099 82.9219C41.9744 89.1389 44.4813 96.7117 50.6982 99.8363C56.9152 102.961 64.4881 100.454 67.6127 94.237Z"
      fill="white" />
    <path
      d="M67.6127 94.237C70.7372 88.02 68.2303 80.4472 62.0134 77.3226C55.7964 74.198 48.2235 76.7049 45.099 82.9219C41.9744 89.1389 44.4813 96.7117 50.6982 99.8363C56.9152 102.961 64.4881 100.454 67.6127 94.237Z"
      fill="#CBCED7" />
    <path
      d="M115.06 92.881C113.782 90.5172 112 88.4637 109.84 86.8662C107.679 85.2687 105.194 84.1664 102.559 83.6376C102.518 83.4963 102.495 83.3598 102.446 83.223C101.123 79.1195 98.3934 75.6148 94.7392 73.3265C91.0849 71.0383 86.7402 70.1134 82.4709 70.7149C78.2015 71.3164 74.2814 73.4057 71.4016 76.6145C68.5219 79.8233 66.8672 83.9457 66.7293 88.255C66.1244 88.3403 65.5278 88.4771 64.9461 88.6639C62.8662 89.3474 61.0385 90.638 59.6985 92.3694C58.3585 94.1009 57.5676 96.1938 57.4276 98.3787C54.8485 98.5855 52.3999 99.599 50.429 101.275C48.4226 102.926 46.9425 105.127 46.1712 107.608C45.3999 110.088 45.371 112.741 46.0881 115.238C46.594 116.908 47.4286 118.461 48.5429 119.805C49.6572 121.148 51.0288 122.256 52.577 123.062C54.1252 123.868 55.819 124.357 57.5587 124.5C59.2985 124.642 61.0492 124.436 62.7081 123.892L87.3598 115.791L109.905 108.386C112.398 107.586 114.477 105.838 115.692 103.519C116.908 101.199 117.162 98.4955 116.401 95.9903L116.362 95.8888C116.022 94.848 115.586 93.8411 115.06 92.881Z"
      fill="white" />
    <path
      d="M115.06 92.881C113.782 90.5172 112 88.4637 109.84 86.8662C107.679 85.2687 105.194 84.1664 102.559 83.6376C102.518 83.4963 102.495 83.3598 102.446 83.223C101.123 79.1195 98.3934 75.6148 94.7392 73.3265C91.0849 71.0383 86.7402 70.1134 82.4708 70.7149C78.2015 71.3164 74.2814 73.4057 71.4016 76.6145C68.5219 79.8233 66.8672 83.9457 66.7293 88.255C66.1244 88.3403 65.5278 88.4771 64.9461 88.6639C62.8662 89.3474 61.0385 90.638 59.6985 92.3694C58.3585 94.1009 57.5676 96.1938 57.4276 98.3787C54.8485 98.5855 52.3999 99.599 50.429 101.275C48.4226 102.926 46.9425 105.127 46.1712 107.608C45.3999 110.088 45.371 112.741 46.0881 115.238C46.594 116.908 47.4286 118.461 48.5429 119.805C49.6572 121.148 51.0288 122.256 52.577 123.062C54.1252 123.868 55.819 124.357 57.5587 124.5C59.2985 124.642 61.0492 124.436 62.7081 123.892L87.3597 115.791L109.905 108.386C112.398 107.586 114.477 105.838 115.692 103.519C116.908 101.199 117.162 98.4955 116.401 95.9903L116.362 95.8888C116.022 94.848 115.586 93.8411 115.06 92.881Z"
      fill="#9FA4B0" />
    <g style="mix-blend-mode:multiply">
      <path d="M188.619 65.4761L84.4805 50.166L69.9893 148.734L174.127 164.044L188.619 65.4761Z" fill="white" />
    </g>
    <path d="M188.619 65.4761L84.4805 50.166L69.9893 148.734L174.127 164.044L188.619 65.4761Z" fill="#79808E" />
    <path d="M187.578 66.2505L83.4395 50.9404L68.9483 149.508L173.086 164.818L187.578 66.2505Z"
      fill="url(#paint1_linear_2169_24210)" />
    <path d="M178.924 72.8834L89.8105 59.7822L79.829 127.676L168.942 140.777L178.924 72.8834Z" fill="white" />
    <path opacity="0.8" d="M178.924 72.8834L89.8105 59.7822L79.829 127.676L168.942 140.777L178.924 72.8834Z"
      fill="#353E4E" />
    <path d="M169.32 138.294L168.953 140.775L122.664 133.975L136.731 124.038L151.138 113.85L169.32 138.294Z"
      fill="white" />
    <path d="M169.32 138.294L168.953 140.775L122.664 133.975L136.731 124.038L151.138 113.85L169.32 138.294Z"
      fill="#9FA4B0" />
    <path d="M148.91 137.831L79.8427 127.677L80.6412 122.217L114.792 99.2092L136.729 124.039L148.91 137.831Z"
      fill="white" />
    <path d="M148.91 137.831L79.8427 127.677L80.6412 122.217L114.792 99.2092L136.729 124.039L148.91 137.831Z"
      fill="#9FA4B0" />
    <path
      d="M152.038 92.06C153.761 86.4299 150.593 80.4692 144.963 78.7464C139.333 77.0237 133.372 80.1912 131.65 85.8213C129.927 91.4515 133.094 97.4122 138.725 99.135C144.355 100.858 150.315 97.6902 152.038 92.06Z"
      fill="white" />
    <path
      d="M152.038 92.06C153.761 86.4299 150.593 80.4692 144.963 78.7464C139.333 77.0237 133.372 80.1912 131.65 85.8213C129.927 91.4515 133.094 97.4122 138.725 99.135C144.355 100.858 150.315 97.6902 152.038 92.06Z"
      fill="#CBCED7" />
  </g>
  <defs>
    <linearGradient id="paint0_linear_2169_24210" x1="64.1384" y1="52.992" x2="95.2331" y2="147.643"
      gradientUnits="userSpaceOnUse">
      <stop stop-color="#444B56" />
      <stop offset="1" stop-color="#2B2F37" />
    </linearGradient>
    <linearGradient id="paint1_linear_2169_24210" x1="135.509" y1="58.5955" x2="121.017" y2="157.163"
      gradientUnits="userSpaceOnUse">
      <stop stop-color="#444B56" />
      <stop offset="1" stop-color="#2B2F37" />
    </linearGradient>
    <clipPath id="clip0_2169_24210">
      <rect width="200" height="200" fill="white" />
    </clipPath>
  </defs>
</svg>