<svg xmlns="http://www.w3.org/2000/svg" width="40" height="40" viewBox="0 0 40 40" fill="none">
  <path
    d="M27.6507 14.2563L12.1378 29.7788C11.8899 30.0267 11.5956 30.1506 11.2548 30.1506C10.914 30.1506 10.6197 30.0267 10.3718 29.7788C10.1239 29.5309 10 29.2366 10 28.8958C10 28.555 10.1239 28.2607 10.3718 28.0128L25.8943 12.4999H12.234C11.8798 12.4999 11.5829 12.3801 11.3434 12.1404C11.1038 11.9007 10.984 11.6037 10.984 11.2494C10.984 10.8951 11.1038 10.5983 11.3434 10.359C11.5829 10.1197 11.8798 10 12.234 10H28.6442C29.071 10 29.4288 10.1444 29.7175 10.4331C30.0062 10.7218 30.1506 11.0796 30.1506 11.5064V27.9166C30.1506 28.2708 30.0307 28.5677 29.7911 28.8072C29.5514 29.0468 29.2544 29.1666 28.9001 29.1666C28.5457 29.1666 28.2489 29.0468 28.0096 28.8072C27.7703 28.5677 27.6507 28.2708 27.6507 27.9166V14.2563Z"
    fill="#F7F7F8" />
</svg>