<svg width="196" height="48" viewBox="0 0 196 48" fill="none" xmlns="http://www.w3.org/2000/svg">
<g id="logo">
<path id="Vector" fill-rule="evenodd" clip-rule="evenodd" d="M7.17723 9.12044C6.76596 8.82468 6.19259 9.1186 6.19259 9.62516V18.2645L13.9953 23.4663L13.9977 23.4679L16.6623 25.2264L16.6003 25.1421L22.9572 20.4679L7.17723 9.12044ZM24.0058 19.6904L7.90315 8.111C6.66933 7.22375 4.94922 8.10548 4.94922 9.62516V39.023C4.94922 40.5841 6.75271 41.4544 7.9748 40.483L13.57 36.0356C14.0151 35.6817 14.2745 35.1441 14.2745 34.5755V25.1404L22.9495 30.8659C23.6007 31.2956 24.4507 31.2747 25.0799 30.8132L32.7179 25.212V35.1498C32.7179 35.7584 33.0148 36.3288 33.5135 36.6777L39.3159 40.7394C40.5519 41.6047 42.2504 40.7204 42.2504 39.2115V9.6922C42.2504 8.15372 40.4926 7.27685 39.2635 8.20228L24.0058 19.6904ZM32.7179 23.6701V14.6872L24.3826 20.9632L17.6752 25.895L23.6344 29.8281C23.8515 29.9714 24.1348 29.9644 24.3445 29.8106L32.7179 23.6701ZM33.8551 13.8309H33.9613V35.1498C33.9613 35.3527 34.0603 35.5428 34.2264 35.6592L40.0288 39.7208C40.4409 40.0092 41.007 39.7144 41.007 39.2115V9.6922C41.007 9.1794 40.4211 8.88708 40.0115 9.19556L33.8551 13.8309ZM13.0311 24.3179L6.19259 19.7588V39.023C6.19259 39.5433 6.79376 39.8334 7.20112 39.5096L12.7963 35.0622C12.9447 34.9443 13.0311 34.7651 13.0311 34.5755V24.3179Z" fill="#FFE900"/>
<path id="Vector_2" fill-rule="evenodd" clip-rule="evenodd" d="M9.71543 21.0845C10.0588 21.0845 10.3371 21.3628 10.3371 21.7062V29.1664C10.3371 29.5098 10.0588 29.7881 9.71543 29.7881C9.37207 29.7881 9.09375 29.5098 9.09375 29.1664V21.7062C9.09375 21.3628 9.37207 21.0845 9.71543 21.0845Z" fill="#FFE900"/>
<path id="Vector_3" fill-rule="evenodd" clip-rule="evenodd" d="M5.0537 12.6573C5.24415 12.3716 5.63014 12.2944 5.91582 12.4848L12.1327 16.6294C12.4183 16.8198 12.4955 17.2058 12.3051 17.4915C12.1147 17.7772 11.7287 17.8544 11.443 17.6639L5.22612 13.5194C4.94044 13.329 4.86324 12.943 5.0537 12.6573Z" fill="#FFE900"/>
<path id="Vector_4" fill-rule="evenodd" clip-rule="evenodd" d="M16.6705 20.5157C16.8701 20.2364 17.2583 20.1717 17.5378 20.3712L20.439 22.4435C20.7183 22.643 20.7831 23.0313 20.5835 23.3107C20.3839 23.5901 19.9956 23.6549 19.7163 23.4553L16.8151 21.3829C16.5357 21.1834 16.471 20.7951 16.6705 20.5157Z" fill="#FFE900"/>
<path id="Vector_5" fill-rule="evenodd" clip-rule="evenodd" d="M25.9777 24.2564C26.1714 24.5399 26.0986 24.9267 25.8151 25.1204L20.8416 28.5182C20.5581 28.7118 20.1712 28.6391 19.9776 28.3555C19.7839 28.072 19.8567 27.6852 20.1402 27.4915L25.1137 24.0938C25.3972 23.9001 25.784 23.9729 25.9777 24.2564Z" fill="#FFE900"/>
<path id="Vector_6" fill-rule="evenodd" clip-rule="evenodd" d="M33.8611 18.8802C34.0482 19.1682 33.9664 19.5532 33.6785 19.7402L30.3628 21.8946C30.0749 22.0817 29.6899 21.9999 29.5028 21.712C29.3157 21.4241 29.3975 21.039 29.6854 20.852L33.0011 18.6976C33.289 18.5106 33.674 18.5923 33.8611 18.8802Z" fill="#FFE900"/>
<path id="Vector_7" fill-rule="evenodd" clip-rule="evenodd" d="M37.485 9.89355C37.8283 9.89355 38.1066 10.1719 38.1066 10.5152V17.1155C38.1066 17.4588 37.8283 17.7372 37.485 17.7372C37.1416 17.7372 36.8633 17.4588 36.8633 17.1155V10.5152C36.8633 10.1719 37.1416 9.89355 37.485 9.89355Z" fill="#FFE900"/>
<path id="Vector_8" fill-rule="evenodd" clip-rule="evenodd" d="M37.4843 17.7683C37.1409 17.7683 36.8625 18.0467 36.8625 18.39C36.8625 18.7334 37.1409 19.0117 37.4843 19.0117C37.8275 19.0117 38.1059 18.7334 38.1059 18.39C38.1059 18.0467 37.8275 17.7683 37.4843 17.7683ZM35.6191 18.39C35.6191 17.3599 36.4542 16.5249 37.4843 16.5249C38.5143 16.5249 39.3493 17.3599 39.3493 18.39C39.3493 19.42 38.5143 20.2551 37.4843 20.2551C36.4542 20.2551 35.6191 19.42 35.6191 18.39Z" fill="#FFE900"/>
<path id="Vector_9" fill-rule="evenodd" clip-rule="evenodd" d="M26.7088 23.1564C26.3654 23.1564 26.0871 23.4348 26.0871 23.7781C26.0871 24.1215 26.3654 24.3998 26.7088 24.3998C27.0522 24.3998 27.3305 24.1215 27.3305 23.7781C27.3305 23.4348 27.0522 23.1564 26.7088 23.1564ZM24.8438 23.7781C24.8438 22.7481 25.6788 21.9131 26.7088 21.9131C27.7389 21.9131 28.5738 22.7481 28.5738 23.7781C28.5738 24.8082 27.7389 25.6432 26.7088 25.6432C25.6788 25.6432 24.8438 24.8082 24.8438 23.7781Z" fill="#FFE900"/>
<path id="Vector_10" fill-rule="evenodd" clip-rule="evenodd" d="M13.0311 17.3537C12.6878 17.3537 12.4094 17.632 12.4094 17.9754C12.4094 18.3188 12.6878 18.5971 13.0311 18.5971C13.3744 18.5971 13.6528 18.3188 13.6528 17.9754C13.6528 17.632 13.3744 17.3537 13.0311 17.3537ZM11.166 17.9754C11.166 16.9454 12.0011 16.1104 13.0311 16.1104C14.0611 16.1104 14.8962 16.9454 14.8962 17.9754C14.8962 19.0055 14.0611 19.8404 13.0311 19.8404C12.0011 19.8404 11.166 19.0055 11.166 17.9754Z" fill="#FFE900"/>
<path id="Vector_11" fill-rule="evenodd" clip-rule="evenodd" d="M9.71466 29.7878C9.3713 29.7878 9.09298 30.0661 9.09298 30.4095C9.09298 30.7528 9.3713 31.0312 9.71466 31.0312C10.058 31.0312 10.3363 30.7528 10.3363 30.4095C10.3363 30.0661 10.058 29.7878 9.71466 29.7878ZM7.84961 30.4095C7.84961 29.3794 8.68466 28.5444 9.71466 28.5444C10.7447 28.5444 11.5797 29.3794 11.5797 30.4095C11.5797 31.4395 10.7447 32.2745 9.71466 32.2745C8.68466 32.2745 7.84961 31.4395 7.84961 30.4095Z" fill="#FFE900"/>
<path id="Vector_12" fill-rule="evenodd" clip-rule="evenodd" d="M37.4843 31.8601C37.1409 31.8601 36.8625 32.1384 36.8625 32.4817C36.8625 32.8251 37.1409 33.1034 37.4843 33.1034C37.8275 33.1034 38.1059 32.8251 38.1059 32.4817C38.1059 32.1384 37.8275 31.8601 37.4843 31.8601ZM35.6191 32.4817C35.6191 31.4517 36.4542 30.6167 37.4843 30.6167C38.5143 30.6167 39.3493 31.4517 39.3493 32.4817C39.3493 33.5118 38.5143 34.3468 37.4843 34.3468C36.4542 34.3468 35.6191 33.5118 35.6191 32.4817Z" fill="#FFE900"/>
<path id="Vector_13" fill-rule="evenodd" clip-rule="evenodd" d="M37.485 22.7422C37.8283 22.7422 38.1066 23.0206 38.1066 23.3639V28.3374C38.1066 28.6807 37.8283 28.9591 37.485 28.9591C37.1416 28.9591 36.8633 28.6807 36.8633 28.3374V23.3639C36.8633 23.0206 37.1416 22.7422 37.485 22.7422Z" fill="#FFE900"/>
<path id="Vector_14" fill-rule="evenodd" clip-rule="evenodd" d="M37.485 33.5181C37.8283 33.5181 38.1066 33.7964 38.1066 34.1397V38.6988C38.1066 39.0421 37.8283 39.3205 37.485 39.3205C37.1416 39.3205 36.8633 39.0421 36.8633 38.6988V34.1397C36.8633 33.7964 37.1416 33.5181 37.485 33.5181Z" fill="#FFE900"/>
<path id="Vector_15" fill-rule="evenodd" clip-rule="evenodd" d="M9.71543 33.9326C10.0588 33.9326 10.3371 34.211 10.3371 34.5543V38.2845C10.3371 38.6278 10.0588 38.9061 9.71543 38.9061C9.37207 38.9061 9.09375 38.6278 9.09375 38.2845V34.5543C9.09375 34.211 9.37207 33.9326 9.71543 33.9326Z" fill="#FFE900"/>
<path id="Vector_16" d="M187.444 37.884C185.099 37.884 183.177 37.3763 181.678 36.3611C180.18 35.3458 179.273 33.8954 178.959 32.0099L183.165 30.9221C183.334 31.7682 183.612 32.4329 183.999 32.9163C184.41 33.3999 184.905 33.7503 185.485 33.9679C186.09 34.1613 186.742 34.258 187.444 34.258C188.507 34.258 189.293 34.0767 189.801 33.7141C190.308 33.3273 190.562 32.8559 190.562 32.2999C190.562 31.7439 190.321 31.3209 189.837 31.0308C189.353 30.7166 188.58 30.4628 187.516 30.2694L186.501 30.0881C185.244 29.8463 184.096 29.52 183.056 29.1091C182.017 28.6739 181.183 28.0817 180.554 27.3323C179.925 26.583 179.612 25.616 179.612 24.4315C179.612 22.6427 180.264 21.2769 181.569 20.3342C182.875 19.3672 184.591 18.8838 186.718 18.8838C188.725 18.8838 190.393 19.331 191.722 20.2254C193.052 21.1198 193.922 22.2922 194.333 23.7426L190.09 25.0479C189.897 24.1294 189.498 23.4767 188.894 23.0899C188.314 22.7031 187.589 22.5098 186.718 22.5098C185.848 22.5098 185.184 22.6669 184.724 22.9811C184.265 23.2712 184.035 23.6822 184.035 24.214C184.035 24.7942 184.277 25.2293 184.761 25.5194C185.244 25.7852 185.897 25.9907 186.718 26.1358L187.733 26.3171C189.087 26.5588 190.308 26.8851 191.396 27.2961C192.508 27.6828 193.378 28.2509 194.007 29.0003C194.659 29.7255 194.985 30.7166 194.985 31.9736C194.985 33.8591 194.297 35.3216 192.919 36.3611C191.565 37.3763 189.74 37.884 187.444 37.884Z" fill="white"/>
<path id="Vector_17" d="M168.428 37.884C166.083 37.884 164.161 37.3763 162.663 36.3611C161.164 35.3458 160.258 33.8954 159.943 32.0099L164.149 30.9221C164.319 31.7682 164.596 32.4329 164.983 32.9163C165.395 33.3999 165.89 33.7503 166.47 33.9679C167.075 34.1613 167.727 34.258 168.428 34.258C169.491 34.258 170.277 34.0767 170.785 33.7141C171.292 33.3273 171.547 32.8559 171.547 32.2999C171.547 31.7439 171.305 31.3209 170.821 31.0308C170.338 30.7166 169.564 30.4628 168.5 30.2694L167.485 30.0881C166.228 29.8463 165.08 29.52 164.04 29.1091C163.001 28.6739 162.167 28.0817 161.539 27.3323C160.91 26.583 160.596 25.616 160.596 24.4315C160.596 22.6427 161.248 21.2769 162.554 20.3342C163.859 19.3672 165.575 18.8838 167.703 18.8838C169.709 18.8838 171.377 19.331 172.707 20.2254C174.036 21.1198 174.907 22.2922 175.317 23.7426L171.075 25.0479C170.882 24.1294 170.483 23.4767 169.879 23.0899C169.299 22.7031 168.573 22.5098 167.703 22.5098C166.832 22.5098 166.167 22.6669 165.708 22.9811C165.249 23.2712 165.019 23.6822 165.019 24.214C165.019 24.7942 165.261 25.2293 165.745 25.5194C166.228 25.7852 166.881 25.9907 167.703 26.1358L168.718 26.3171C170.071 26.5588 171.292 26.8851 172.38 27.2961C173.492 27.6828 174.363 28.2509 174.991 29.0003C175.643 29.7255 175.97 30.7166 175.97 31.9736C175.97 33.8591 175.281 35.3216 173.903 36.3611C172.55 37.3763 170.724 37.884 168.428 37.884Z" fill="white"/>
<path id="Vector_18" d="M148.227 37.884C146.438 37.884 144.855 37.5093 143.477 36.7599C142.123 35.9864 141.06 34.9107 140.286 33.5328C139.537 32.1307 139.162 30.487 139.162 28.6015V28.1663C139.162 26.2808 139.537 24.6491 140.286 23.2712C141.035 21.8691 142.087 20.7935 143.441 20.0441C144.794 19.2706 146.365 18.8838 148.154 18.8838C149.919 18.8838 151.454 19.2827 152.76 20.0803C154.065 20.8539 155.08 21.9417 155.805 23.3438C156.53 24.7216 156.893 26.3291 156.893 28.1663V29.7255H143.803C143.852 30.9583 144.311 31.9615 145.181 32.7351C146.051 33.5087 147.115 33.8954 148.372 33.8954C149.653 33.8954 150.596 33.6174 151.201 33.0614C151.805 32.5055 152.264 31.889 152.578 31.2122L156.313 33.1702C155.974 33.7987 155.479 34.4876 154.826 35.237C154.197 35.9622 153.352 36.5907 152.288 37.1225C151.225 37.6302 149.871 37.884 148.227 37.884ZM143.84 26.3171H152.252C152.155 25.2776 151.732 24.4436 150.983 23.8151C150.257 23.1867 149.303 22.8723 148.118 22.8723C146.885 22.8723 145.906 23.1867 145.181 23.8151C144.456 24.4436 144.009 25.2776 143.84 26.3171Z" fill="white"/>
<path id="Vector_19" d="M126.293 37.3764V19.3914H130.789V21.422H131.442C131.707 20.6968 132.143 20.1649 132.747 19.8265C133.375 19.4881 134.101 19.3188 134.923 19.3188H137.099V23.38H134.85C133.69 23.38 132.735 23.6942 131.986 24.3228C131.236 24.9271 130.862 25.8698 130.862 27.151V37.3764H126.293Z" fill="white"/>
<path id="Vector_20" d="M104.264 37.3761V11.9941H114.707C116.302 11.9941 117.704 12.3205 118.912 12.9731C120.145 13.6017 121.1 14.4961 121.777 15.6564C122.478 16.8167 122.828 18.1945 122.828 19.79V20.2977C122.828 21.8689 122.466 23.2468 121.741 24.4313C121.04 25.5916 120.073 26.4981 118.84 27.1508C117.632 27.7793 116.254 28.0936 114.707 28.0936H109.05V37.3761H104.264ZM109.05 23.7424H114.235C115.372 23.7424 116.29 23.4281 116.991 22.7996C117.692 22.1711 118.043 21.3129 118.043 20.2251V19.8625C118.043 18.7747 117.692 17.9166 116.991 17.2881C116.29 16.6596 115.372 16.3453 114.235 16.3453H109.05V23.7424Z" fill="white"/>
<path id="Vector_21" d="M87.88 38.1376C86.4536 38.1376 85.112 37.7871 83.8552 37.086C82.6224 36.3609 81.6312 35.3093 80.8816 33.9315C80.1328 32.5536 79.7578 30.8856 79.7578 28.9276V28.3474C79.7578 26.3894 80.1328 24.7214 80.8816 23.3436C81.6312 21.9656 82.6224 20.9262 83.8552 20.2252C85.088 19.5 86.4296 19.1374 87.88 19.1374C88.968 19.1374 89.8744 19.2704 90.5992 19.5363C91.3488 19.778 91.9536 20.0923 92.4128 20.479C92.872 20.8658 93.2224 21.2768 93.464 21.7119H94.1168V12.248H98.6856V37.63H94.1896V35.4544H93.5368C93.1256 36.1312 92.4848 36.7476 91.6152 37.3036C90.7688 37.8596 89.524 38.1376 87.88 38.1376ZM89.2576 34.149C90.66 34.149 91.832 33.7018 92.7752 32.8074C93.7176 31.8888 94.1896 30.5593 94.1896 28.8188V28.4562C94.1896 26.7157 93.7176 25.3983 92.7752 24.5039C91.8568 23.5853 90.684 23.126 89.2576 23.126C87.856 23.126 86.6832 23.5853 85.7408 24.5039C84.7976 25.3983 84.3264 26.7157 84.3264 28.4562V28.8188C84.3264 30.5593 84.7976 31.8888 85.7408 32.8074C86.6832 33.7018 87.856 34.149 89.2576 34.149Z" fill="white"/>
<path id="Vector_22" d="M58.2852 37.6295V19.6446H62.7814V22.0015H63.434C63.7241 21.3729 64.268 20.7807 65.0657 20.2247C65.8635 19.6446 67.0721 19.3545 68.6917 19.3545C70.0938 19.3545 71.3145 19.6808 72.354 20.3335C73.4176 20.962 74.2395 21.8443 74.8196 22.9805C75.3998 24.0924 75.6899 25.3978 75.6899 26.8965V37.6295H71.1212V27.2591C71.1212 25.9055 70.7828 24.8902 70.1059 24.2133C69.4532 23.5364 68.5104 23.198 67.2776 23.198C65.8756 23.198 64.7877 23.6694 64.0142 24.6122C63.2407 25.5307 62.8539 26.824 62.8539 28.4919V37.6295H58.2852Z" fill="white"/>
<path id="Vector_23" d="M48.6526 37.6298V19.6449H53.2214V37.6298H48.6526ZM50.937 17.5418C50.1152 17.5418 49.4142 17.2759 48.834 16.7441C48.278 16.2123 48 15.5113 48 14.641C48 13.7708 48.278 13.0698 48.834 12.5379C49.4142 12.0062 50.1152 11.7402 50.937 11.7402C51.7831 11.7402 52.4842 12.0062 53.0402 12.5379C53.5962 13.0698 53.8741 13.7708 53.8741 14.641C53.8741 15.5113 53.5962 16.2123 53.0402 16.7441C52.4842 17.2759 51.7831 17.5418 50.937 17.5418Z" fill="white"/>
</g>
</svg>
