<svg width="228" height="48" viewBox="0 0 228 48" fill="none" xmlns="http://www.w3.org/2000/svg">
  <path fill-rule="evenodd" clip-rule="evenodd"
    d="M7.17723 9.12046C6.76596 8.82472 6.19259 9.11863 6.19259 9.6252V18.2645L13.9953 23.4663L13.9977 23.4679L16.6622 25.2265L16.6002 25.1421L22.9572 20.4679L7.17723 9.12046ZM24.0058 19.6904L7.90315 8.11099C6.66933 7.22375 4.94922 8.1055 4.94922 9.6252V39.023C4.94922 40.5841 6.7527 41.4544 7.9748 40.483L13.57 36.0355C14.0151 35.6817 14.2745 35.1441 14.2745 34.5755V25.1404L22.9495 30.8659C23.6007 31.2956 24.4506 31.2747 25.0798 30.8133L32.7179 25.212V35.1498C32.7179 35.7584 33.0148 36.3287 33.5134 36.6778L39.3158 40.7394C40.5519 41.6047 42.2504 40.7204 42.2504 39.2115V9.69221C42.2504 8.15371 40.4926 7.27685 39.2635 8.20227L24.0058 19.6904ZM32.7179 23.6701V14.6872L24.3826 20.9632L17.6752 25.895L23.6344 29.8281C23.8515 29.9714 24.1348 29.9644 24.3445 29.8106L32.7179 23.6701ZM33.8551 13.8309H33.9613V35.1498C33.9613 35.3527 34.0602 35.5428 34.2264 35.6591L40.0289 39.7208C40.4409 40.0093 41.007 39.7145 41.007 39.2115V9.69221C41.007 9.17938 40.4211 8.88709 40.0114 9.19556L33.8551 13.8309ZM13.0311 24.3179L6.19259 19.7588V39.023C6.19259 39.5434 6.79375 39.8335 7.20112 39.5096L12.7963 35.0622C12.9447 34.9443 13.0311 34.7651 13.0311 34.5755V24.3179Z"
    fill="#FFE900" />
  <path fill-rule="evenodd" clip-rule="evenodd"
    d="M9.71544 21.084C10.0588 21.084 10.3371 21.3623 10.3371 21.7057V29.1659C10.3371 29.5093 10.0588 29.7876 9.71544 29.7876C9.37209 29.7876 9.09375 29.5093 9.09375 29.1659V21.7057C9.09375 21.3623 9.37209 21.084 9.71544 21.084Z"
    fill="#FFE900" />
  <path fill-rule="evenodd" clip-rule="evenodd"
    d="M5.05383 12.6575C5.24429 12.3718 5.63028 12.2946 5.91596 12.4851L12.1328 16.6297C12.4185 16.8201 12.4957 17.2061 12.3053 17.4918C12.1148 17.7775 11.7288 17.8547 11.4431 17.6642L5.22626 13.5197C4.94058 13.3292 4.86338 12.9432 5.05383 12.6575Z"
    fill="#FFE900" />
  <path fill-rule="evenodd" clip-rule="evenodd"
    d="M16.6699 20.5156C16.8695 20.2362 17.2578 20.1715 17.5372 20.3711L20.4384 22.4433C20.7178 22.6429 20.7825 23.0312 20.5829 23.3106C20.3834 23.59 19.9951 23.6547 19.7157 23.4551L16.8145 21.3828C16.5351 21.1833 16.4704 20.795 16.6699 20.5156Z"
    fill="#FFE900" />
  <path fill-rule="evenodd" clip-rule="evenodd"
    d="M25.9776 24.2565C26.1713 24.54 26.0985 24.9268 25.815 25.1205L20.8415 28.5183C20.558 28.7119 20.1712 28.6391 19.9775 28.3556C19.7838 28.0721 19.8566 27.6853 20.1401 27.4916L25.1136 24.0939C25.3971 23.9002 25.784 23.973 25.9776 24.2565Z"
    fill="#FFE900" />
  <path fill-rule="evenodd" clip-rule="evenodd"
    d="M33.8622 18.8807C34.0492 19.1686 33.9675 19.5536 33.6796 19.7407L30.3639 21.8951C30.076 22.0822 29.6909 22.0004 29.5039 21.7125C29.3168 21.4246 29.3985 21.0395 29.6864 20.8525L33.0021 18.6981C33.29 18.511 33.6751 18.5928 33.8622 18.8807Z"
    fill="#FFE900" />
  <path fill-rule="evenodd" clip-rule="evenodd"
    d="M37.485 9.89355C37.8283 9.89355 38.1067 10.1719 38.1067 10.5152V17.1155C38.1067 17.4588 37.8283 17.7372 37.485 17.7372C37.1416 17.7372 36.8633 17.4588 36.8633 17.1155V10.5152C36.8633 10.1719 37.1416 9.89355 37.485 9.89355Z"
    fill="#FFE900" />
  <path fill-rule="evenodd" clip-rule="evenodd"
    d="M37.4842 17.7688C37.1409 17.7688 36.8625 18.0471 36.8625 18.3905C36.8625 18.7338 37.1409 19.0121 37.4842 19.0121C37.8275 19.0121 38.1059 18.7338 38.1059 18.3905C38.1059 18.0471 37.8275 17.7688 37.4842 17.7688ZM35.6191 18.3905C35.6191 17.3604 36.4542 16.5254 37.4842 16.5254C38.5142 16.5254 39.3493 17.3604 39.3493 18.3905C39.3493 19.4205 38.5142 20.2555 37.4842 20.2555C36.4542 20.2555 35.6191 19.4205 35.6191 18.3905Z"
    fill="#FFE900" />
  <path fill-rule="evenodd" clip-rule="evenodd"
    d="M26.7088 23.1565C26.3655 23.1565 26.0871 23.4348 26.0871 23.7781C26.0871 24.1215 26.3655 24.3998 26.7088 24.3998C27.0522 24.3998 27.3305 24.1215 27.3305 23.7781C27.3305 23.4348 27.0522 23.1565 26.7088 23.1565ZM24.8438 23.7781C24.8438 22.7481 25.6788 21.9131 26.7088 21.9131C27.7389 21.9131 28.5739 22.7481 28.5739 23.7781C28.5739 24.8082 27.7389 25.6432 26.7088 25.6432C25.6788 25.6432 24.8438 24.8082 24.8438 23.7781Z"
    fill="#FFE900" />
  <path fill-rule="evenodd" clip-rule="evenodd"
    d="M13.0311 17.3537C12.6877 17.3537 12.4094 17.6321 12.4094 17.9754C12.4094 18.3188 12.6877 18.5971 13.0311 18.5971C13.3744 18.5971 13.6528 18.3188 13.6528 17.9754C13.6528 17.6321 13.3744 17.3537 13.0311 17.3537ZM11.166 17.9754C11.166 16.9454 12.001 16.1104 13.0311 16.1104C14.0611 16.1104 14.8961 16.9454 14.8961 17.9754C14.8961 19.0055 14.0611 19.8405 13.0311 19.8405C12.001 19.8405 11.166 19.0055 11.166 17.9754Z"
    fill="#FFE900" />
  <path fill-rule="evenodd" clip-rule="evenodd"
    d="M9.71467 29.7873C9.37132 29.7873 9.09298 30.0657 9.09298 30.409C9.09298 30.7524 9.37132 31.0307 9.71467 31.0307C10.058 31.0307 10.3364 30.7524 10.3364 30.409C10.3364 30.0657 10.058 29.7873 9.71467 29.7873ZM7.84961 30.409C7.84961 29.379 8.68463 28.5439 9.71467 28.5439C10.7447 28.5439 11.5797 29.379 11.5797 30.409C11.5797 31.4391 10.7447 32.2741 9.71467 32.2741C8.68463 32.2741 7.84961 31.4391 7.84961 30.409Z"
    fill="#FFE900" />
  <path fill-rule="evenodd" clip-rule="evenodd"
    d="M37.4842 31.8596C37.1409 31.8596 36.8625 32.1379 36.8625 32.4813C36.8625 32.8246 37.1409 33.103 37.4842 33.103C37.8275 33.103 38.1059 32.8246 38.1059 32.4813C38.1059 32.1379 37.8275 31.8596 37.4842 31.8596ZM35.6191 32.4813C35.6191 31.4512 36.4542 30.6162 37.4842 30.6162C38.5142 30.6162 39.3493 31.4512 39.3493 32.4813C39.3493 33.5113 38.5142 34.3463 37.4842 34.3463C36.4542 34.3463 35.6191 33.5113 35.6191 32.4813Z"
    fill="#FFE900" />
  <path fill-rule="evenodd" clip-rule="evenodd"
    d="M37.485 22.7422C37.8283 22.7422 38.1067 23.0205 38.1067 23.3639L38.1067 28.3374C38.1067 28.6807 37.8283 28.9591 37.485 28.9591C37.1416 28.9591 36.8633 28.6807 36.8633 28.3374L36.8633 23.3639C36.8633 23.0205 37.1416 22.7422 37.485 22.7422Z"
    fill="#FFE900" />
  <path fill-rule="evenodd" clip-rule="evenodd"
    d="M37.485 33.5176C37.8283 33.5176 38.1067 33.7959 38.1067 34.1393L38.1067 38.6983C38.1067 39.0416 37.8283 39.32 37.485 39.32C37.1416 39.32 36.8633 39.0416 36.8633 38.6983L36.8633 34.1393C36.8633 33.7959 37.1416 33.5176 37.485 33.5176Z"
    fill="#FFE900" />
  <path fill-rule="evenodd" clip-rule="evenodd"
    d="M9.71544 33.9326C10.0588 33.9326 10.3371 34.211 10.3371 34.5543L10.3371 38.2844C10.3371 38.6278 10.0588 38.9061 9.71544 38.9061C9.37209 38.9061 9.09375 38.6278 9.09375 38.2844L9.09375 34.5543C9.09375 34.211 9.37209 33.9326 9.71544 33.9326Z"
    fill="#FFE900" />
  <path
    d="M120.658 16.0253C119.767 16.0253 119.038 15.8325 118.468 15.4469C117.899 15.0614 117.555 14.5106 117.436 13.7945L119.033 13.3814C119.097 13.7027 119.203 13.9551 119.35 14.1388C119.506 14.3224 119.694 14.4555 119.914 14.5381C120.144 14.6115 120.392 14.6483 120.658 14.6483C121.062 14.6483 121.36 14.5794 121.553 14.4417C121.746 14.2948 121.842 14.1158 121.842 13.9047C121.842 13.6935 121.75 13.5328 121.567 13.4227C121.383 13.3033 121.089 13.2069 120.685 13.1335L120.3 13.0647C119.822 12.9728 119.386 12.8489 118.992 12.6929C118.597 12.5276 118.28 12.3027 118.041 12.0181C117.803 11.7335 117.683 11.3663 117.683 10.9165C117.683 10.2371 117.931 9.71842 118.427 9.36039C118.923 8.99318 119.575 8.80957 120.382 8.80957C121.144 8.80957 121.778 8.97941 122.283 9.31908C122.788 9.65875 123.118 10.104 123.274 10.6548L121.663 11.1506C121.59 10.8017 121.438 10.5538 121.209 10.4069C120.988 10.2601 120.713 10.1866 120.382 10.1866C120.052 10.1866 119.799 10.2463 119.625 10.3656C119.451 10.4758 119.363 10.6319 119.363 10.8338C119.363 11.0542 119.455 11.2194 119.639 11.3296C119.822 11.4306 120.07 11.5086 120.382 11.5637L120.768 11.6325C121.282 11.7243 121.746 11.8483 122.159 12.0043C122.581 12.1512 122.912 12.3669 123.15 12.6515C123.398 12.9269 123.522 13.3033 123.522 13.7807C123.522 14.4968 123.26 15.0522 122.737 15.4469C122.223 15.8325 121.53 16.0253 120.658 16.0253Z"
    fill="#D9D9D9" />
  <path
    d="M113.435 16.0253C112.545 16.0253 111.815 15.8325 111.246 15.4469C110.676 15.0614 110.332 14.5106 110.213 13.7945L111.81 13.3814C111.875 13.7027 111.98 13.9551 112.127 14.1388C112.283 14.3224 112.471 14.4555 112.692 14.5381C112.921 14.6115 113.169 14.6483 113.435 14.6483C113.839 14.6483 114.137 14.5794 114.33 14.4417C114.523 14.2948 114.619 14.1158 114.619 13.9047C114.619 13.6935 114.528 13.5328 114.344 13.4227C114.16 13.3033 113.867 13.2069 113.463 13.1335L113.077 13.0647C112.6 12.9728 112.164 12.8489 111.769 12.6929C111.374 12.5276 111.057 12.3027 110.819 12.0181C110.58 11.7335 110.461 11.3663 110.461 10.9165C110.461 10.2371 110.709 9.71842 111.204 9.36039C111.7 8.99318 112.352 8.80957 113.16 8.80957C113.922 8.80957 114.555 8.97941 115.06 9.31908C115.565 9.65875 115.896 10.104 116.052 10.6548L114.44 11.1506C114.367 10.8017 114.216 10.5538 113.986 10.4069C113.766 10.2601 113.49 10.1866 113.16 10.1866C112.829 10.1866 112.577 10.2463 112.402 10.3656C112.228 10.4758 112.141 10.6319 112.141 10.8338C112.141 11.0542 112.233 11.2194 112.416 11.3296C112.6 11.4306 112.848 11.5086 113.16 11.5637L113.545 11.6325C114.059 11.7243 114.523 11.8483 114.936 12.0043C115.358 12.1512 115.689 12.3669 115.928 12.6515C116.176 12.9269 116.299 13.3033 116.299 13.7807C116.299 14.4968 116.038 15.0522 115.515 15.4469C115 15.8325 114.307 16.0253 113.435 16.0253Z"
    fill="#D9D9D9" />
  <path
    d="M105.763 16.0253C105.084 16.0253 104.482 15.883 103.959 15.5984C103.445 15.3047 103.041 14.8961 102.747 14.3729C102.463 13.8404 102.32 13.2161 102.32 12.5001V12.3348C102.32 11.6188 102.463 10.9991 102.747 10.4758C103.032 9.94334 103.431 9.53482 103.945 9.25023C104.459 8.95646 105.056 8.80957 105.735 8.80957C106.406 8.80957 106.989 8.96105 107.484 9.264C107.98 9.55777 108.366 9.97088 108.641 10.5033C108.916 11.0266 109.054 11.6371 109.054 12.3348V12.9269H104.083C104.101 13.3951 104.276 13.7761 104.606 14.0699C104.937 14.3637 105.341 14.5106 105.818 14.5106C106.305 14.5106 106.663 14.405 106.892 14.1938C107.122 13.9827 107.296 13.7486 107.415 13.4915L108.834 14.2351C108.705 14.4738 108.517 14.7355 108.269 15.0201C108.03 15.2955 107.709 15.5342 107.305 15.7361C106.901 15.9289 106.387 16.0253 105.763 16.0253ZM104.097 11.6325H107.291C107.255 11.2378 107.094 10.921 106.809 10.6824C106.534 10.4437 106.171 10.3243 105.722 10.3243C105.253 10.3243 104.882 10.4437 104.606 10.6824C104.331 10.921 104.161 11.2378 104.097 11.6325Z"
    fill="#D9D9D9" />
  <path
    d="M97.4336 15.8323V9.00215H99.1411V9.7733H99.389C99.49 9.49789 99.6552 9.29592 99.8847 9.1674C100.123 9.03887 100.399 8.97461 100.711 8.97461H101.537V10.5169H100.683C100.243 10.5169 99.8801 10.6362 99.5956 10.8749C99.311 11.1044 99.1687 11.4625 99.1687 11.949V15.8323H97.4336Z"
    fill="#D9D9D9" />
  <path
    d="M89.0684 15.8317V6.19238H93.0343C93.6402 6.19238 94.1726 6.31632 94.6316 6.56419C95.0998 6.80288 95.4625 7.14255 95.7195 7.5832C95.9857 8.02386 96.1189 8.54714 96.1189 9.15304V9.34583C96.1189 9.94255 95.9811 10.4658 95.7057 10.9157C95.4395 11.3563 95.0723 11.7006 94.6041 11.9484C94.1451 12.1871 93.6218 12.3065 93.0343 12.3065H90.8861V15.8317H89.0684ZM90.8861 10.654H92.8552C93.2867 10.654 93.6356 10.5347 93.9018 10.296C94.168 10.0573 94.3011 9.7314 94.3011 9.31828V9.18058C94.3011 8.76747 94.168 8.44156 93.9018 8.20288C93.6356 7.96419 93.2867 7.84484 92.8552 7.84484H90.8861V10.654Z"
    fill="#D9D9D9" />
  <path
    d="M83.0963 16.0245C82.5547 16.0245 82.0452 15.8914 81.5678 15.6252C81.0996 15.3498 80.7232 14.9504 80.4386 14.4271C80.154 13.9039 80.0117 13.2704 80.0117 12.5268V12.3065C80.0117 11.5629 80.154 10.9294 80.4386 10.4062C80.7232 9.88288 81.0996 9.48812 81.5678 9.22189C82.036 8.94648 82.5455 8.80878 83.0963 8.80878C83.5094 8.80878 83.8537 8.85927 84.1291 8.96025C84.4137 9.05206 84.6432 9.1714 84.8176 9.31828C84.992 9.46517 85.1252 9.62124 85.217 9.78648H85.4648V6.19238H87.1999V15.8317H85.4924V15.0055H85.2445C85.0884 15.2625 84.8452 15.4966 84.5147 15.7078C84.1934 15.9189 83.7206 16.0245 83.0963 16.0245ZM83.6196 14.5098C84.152 14.5098 84.5973 14.3399 84.9553 14.0003C85.3134 13.6514 85.4924 13.1465 85.4924 12.4855V12.3478C85.4924 11.6868 85.3134 11.1865 84.9553 10.8468C84.6065 10.498 84.1612 10.3235 83.6196 10.3235C83.0871 10.3235 82.6419 10.498 82.2839 10.8468C81.9258 11.1865 81.7468 11.6868 81.7468 12.3478V12.4855C81.7468 13.1465 81.9258 13.6514 82.2839 14.0003C82.6419 14.3399 83.0871 14.5098 83.6196 14.5098Z"
    fill="#D9D9D9" />
  <path
    d="M71.8555 15.8319V9.00177H73.563V9.89685H73.8109C73.921 9.65816 74.1276 9.43324 74.4305 9.22209C74.7335 9.00177 75.1925 8.8916 75.8076 8.8916C76.3401 8.8916 76.8037 9.01554 77.1984 9.2634C77.6024 9.50209 77.9145 9.83717 78.1348 10.2687C78.3551 10.6909 78.4653 11.1867 78.4653 11.7559V15.8319H76.7302V11.8936C76.7302 11.3795 76.6017 10.9939 76.3446 10.7368C76.0968 10.4798 75.7387 10.3513 75.2706 10.3513C74.7381 10.3513 74.325 10.5303 74.0312 10.8883C73.7374 11.2372 73.5906 11.7283 73.5906 12.3618V15.8319H71.8555Z"
    fill="#D9D9D9" />
  <path
    d="M68.199 15.8321V9.00197H69.9341V15.8321H68.199ZM69.0666 8.20328C68.7545 8.20328 68.4882 8.1023 68.2679 7.90033C68.0567 7.69836 67.9512 7.43213 67.9512 7.10164C67.9512 6.77115 68.0567 6.50492 68.2679 6.30295C68.4882 6.10098 68.7545 6 69.0666 6C69.3879 6 69.6541 6.10098 69.8653 6.30295C70.0764 6.50492 70.182 6.77115 70.182 7.10164C70.182 7.43213 70.0764 7.69836 69.8653 7.90033C69.6541 8.1023 69.3879 8.20328 69.0666 8.20328Z"
    fill="#D9D9D9" />
  <path
    d="M56 15.8317V6.19238H59.3738L61.04 14.5924H61.2879L62.9541 6.19238H66.3279V15.8317H64.5652V7.52812H64.3174L62.6649 15.8317H59.663L58.0105 7.52812H57.7626V15.8317H56Z"
    fill="#D9D9D9" />
  <path
    d="M56 40V37.68H57.84V28.32H56V26H61.76C63.64 26 65.0667 26.48 66.04 27.44C67.0267 28.3867 67.52 29.8 67.52 31.68V34.32C67.52 36.2 67.0267 37.62 66.04 38.58C65.0667 39.5267 63.64 40 61.76 40H56ZM60.48 37.6H61.8C62.8667 37.6 63.6467 37.32 64.14 36.76C64.6333 36.2 64.88 35.4133 64.88 34.4V31.6C64.88 30.5733 64.6333 29.7867 64.14 29.24C63.6467 28.68 62.8667 28.4 61.8 28.4H60.48V37.6Z"
    fill="white" />
  <path
    d="M72.8803 40.28C72.1736 40.28 71.5403 40.16 70.9803 39.92C70.4203 39.6667 69.9736 39.3067 69.6403 38.84C69.3203 38.36 69.1603 37.78 69.1603 37.1C69.1603 36.42 69.3203 35.8533 69.6403 35.4C69.9736 34.9333 70.427 34.5867 71.0003 34.36C71.587 34.12 72.2536 34 73.0003 34H75.7203V33.44C75.7203 32.9733 75.5736 32.5933 75.2803 32.3C74.987 31.9933 74.5203 31.84 73.8803 31.84C73.2536 31.84 72.787 31.9867 72.4803 32.28C72.1736 32.56 71.9736 32.9267 71.8803 33.38L69.5603 32.6C69.7203 32.0933 69.9736 31.6333 70.3203 31.22C70.6803 30.7933 71.1536 30.4533 71.7403 30.2C72.3403 29.9333 73.067 29.8 73.9203 29.8C75.227 29.8 76.2603 30.1267 77.0203 30.78C77.7803 31.4333 78.1603 32.38 78.1603 33.62V37.32C78.1603 37.72 78.347 37.92 78.7203 37.92H79.5203V40H77.8403C77.347 40 76.9403 39.88 76.6203 39.64C76.3003 39.4 76.1403 39.08 76.1403 38.68V38.66H75.7603C75.707 38.82 75.587 39.0333 75.4003 39.3C75.2136 39.5533 74.9203 39.78 74.5203 39.98C74.1203 40.18 73.5736 40.28 72.8803 40.28ZM73.3203 38.24C74.027 38.24 74.6003 38.0467 75.0403 37.66C75.4936 37.26 75.7203 36.7333 75.7203 36.08V35.88H73.1803C72.7136 35.88 72.347 35.98 72.0803 36.18C71.8136 36.38 71.6803 36.66 71.6803 37.02C71.6803 37.38 71.8203 37.6733 72.1003 37.9C72.3803 38.1267 72.787 38.24 73.3203 38.24Z"
    fill="white" />
  <path
    d="M84.4402 40C83.7868 40 83.2535 39.8 82.8402 39.4C82.4402 38.9867 82.2402 38.44 82.2402 37.76V32.16H79.7602V30.08H82.2402V27H84.7602V30.08H87.4802V32.16H84.7602V37.32C84.7602 37.72 84.9468 37.92 85.3202 37.92H87.2402V40H84.4402Z"
    fill="white" />
  <path
    d="M92.8413 40.28C92.1346 40.28 91.5013 40.16 90.9412 39.92C90.3812 39.6667 89.9346 39.3067 89.6012 38.84C89.2812 38.36 89.1213 37.78 89.1213 37.1C89.1213 36.42 89.2812 35.8533 89.6012 35.4C89.9346 34.9333 90.3879 34.5867 90.9613 34.36C91.5479 34.12 92.2146 34 92.9613 34H95.6813V33.44C95.6813 32.9733 95.5346 32.5933 95.2412 32.3C94.9479 31.9933 94.4813 31.84 93.8413 31.84C93.2146 31.84 92.7479 31.9867 92.4412 32.28C92.1346 32.56 91.9346 32.9267 91.8413 33.38L89.5213 32.6C89.6813 32.0933 89.9346 31.6333 90.2812 31.22C90.6413 30.7933 91.1146 30.4533 91.7013 30.2C92.3013 29.9333 93.0279 29.8 93.8812 29.8C95.1879 29.8 96.2213 30.1267 96.9813 30.78C97.7412 31.4333 98.1213 32.38 98.1213 33.62V37.32C98.1213 37.72 98.3079 37.92 98.6813 37.92H99.4813V40H97.8013C97.3079 40 96.9012 39.88 96.5812 39.64C96.2612 39.4 96.1012 39.08 96.1012 38.68V38.66H95.7213C95.6679 38.82 95.5479 39.0333 95.3613 39.3C95.1746 39.5533 94.8813 39.78 94.4813 39.98C94.0812 40.18 93.5346 40.28 92.8413 40.28ZM93.2812 38.24C93.9879 38.24 94.5613 38.0467 95.0013 37.66C95.4546 37.26 95.6813 36.7333 95.6813 36.08V35.88H93.1413C92.6746 35.88 92.3079 35.98 92.0413 36.18C91.7746 36.38 91.6413 36.66 91.6413 37.02C91.6413 37.38 91.7812 37.6733 92.0612 37.9C92.3412 38.1267 92.7479 38.24 93.2812 38.24Z"
    fill="white" />
  <path
    d="M106.322 40V26H111.222L113.642 38.2H114.002L116.422 26H121.322V40H118.762V27.94H118.402L116.002 40H111.642L109.242 27.94H108.882V40H106.322Z"
    fill="white" />
  <path
    d="M127.119 40.28C126.412 40.28 125.779 40.16 125.219 39.92C124.659 39.6667 124.212 39.3067 123.879 38.84C123.559 38.36 123.399 37.78 123.399 37.1C123.399 36.42 123.559 35.8533 123.879 35.4C124.212 34.9333 124.665 34.5867 125.239 34.36C125.825 34.12 126.492 34 127.239 34H129.959V33.44C129.959 32.9733 129.812 32.5933 129.519 32.3C129.225 31.9933 128.759 31.84 128.119 31.84C127.492 31.84 127.025 31.9867 126.719 32.28C126.412 32.56 126.212 32.9267 126.119 33.38L123.799 32.6C123.959 32.0933 124.212 31.6333 124.559 31.22C124.919 30.7933 125.392 30.4533 125.979 30.2C126.579 29.9333 127.305 29.8 128.159 29.8C129.465 29.8 130.499 30.1267 131.259 30.78C132.019 31.4333 132.399 32.38 132.399 33.62V37.32C132.399 37.72 132.585 37.92 132.959 37.92H133.759V40H132.079C131.585 40 131.179 39.88 130.859 39.64C130.539 39.4 130.379 39.08 130.379 38.68V38.66H129.999C129.945 38.82 129.825 39.0333 129.639 39.3C129.452 39.5533 129.159 39.78 128.759 39.98C128.359 40.18 127.812 40.28 127.119 40.28ZM127.559 38.24C128.265 38.24 128.839 38.0467 129.279 37.66C129.732 37.26 129.959 36.7333 129.959 36.08V35.88H127.419C126.952 35.88 126.585 35.98 126.319 36.18C126.052 36.38 125.919 36.66 125.919 37.02C125.919 37.38 126.059 37.6733 126.339 37.9C126.619 38.1267 127.025 38.24 127.559 38.24Z"
    fill="white" />
  <path
    d="M135.601 40V30.08H138.081V31.2H138.441C138.588 30.8 138.828 30.5067 139.161 30.32C139.508 30.1333 139.908 30.04 140.361 30.04H141.561V32.28H140.321C139.681 32.28 139.154 32.4533 138.741 32.8C138.328 33.1333 138.121 33.6533 138.121 34.36V40H135.601Z"
    fill="white" />
  <path
    d="M143.531 40V26H146.051V33.74H146.411L149.691 30.08H152.971L148.391 34.88L153.131 40H149.891L146.411 36.06H146.051V40H143.531Z"
    fill="white" />
  <path
    d="M158.734 40.28C157.748 40.28 156.874 40.0733 156.114 39.66C155.368 39.2333 154.781 38.64 154.354 37.88C153.941 37.1067 153.734 36.2 153.734 35.16V34.92C153.734 33.88 153.941 32.98 154.354 32.22C154.768 31.4467 155.348 30.8533 156.094 30.44C156.841 30.0133 157.708 29.8 158.694 29.8C159.668 29.8 160.514 30.02 161.234 30.46C161.954 30.8867 162.514 31.4867 162.914 32.26C163.314 33.02 163.514 33.9067 163.514 34.92V35.78H156.294C156.321 36.46 156.574 37.0133 157.054 37.44C157.534 37.8667 158.121 38.08 158.814 38.08C159.521 38.08 160.041 37.9267 160.374 37.62C160.708 37.3133 160.961 36.9733 161.134 36.6L163.194 37.68C163.008 38.0267 162.734 38.4067 162.374 38.82C162.028 39.22 161.561 39.5667 160.974 39.86C160.388 40.14 159.641 40.28 158.734 40.28ZM156.314 33.9H160.954C160.901 33.3267 160.668 32.8667 160.254 32.52C159.854 32.1733 159.328 32 158.674 32C157.994 32 157.454 32.1733 157.054 32.52C156.654 32.8667 156.408 33.3267 156.314 33.9Z"
    fill="white" />
  <path
    d="M169.225 40C168.572 40 168.039 39.8 167.625 39.4C167.225 38.9867 167.025 38.44 167.025 37.76V32.16H164.545V30.08H167.025V27H169.545V30.08H172.265V32.16H169.545V37.32C169.545 37.72 169.732 37.92 170.105 37.92H172.025V40H169.225Z"
    fill="white" />
  <path
    d="M174.466 40V26H180.226C181.106 26 181.88 26.18 182.546 26.54C183.226 26.8867 183.753 27.38 184.126 28.02C184.513 28.66 184.706 29.42 184.706 30.3V30.58C184.706 31.4467 184.506 32.2067 184.106 32.86C183.72 33.5 183.186 34 182.506 34.36C181.84 34.7067 181.08 34.88 180.226 34.88H177.106V40H174.466ZM177.106 32.48H179.966C180.593 32.48 181.1 32.3067 181.486 31.96C181.873 31.6133 182.066 31.14 182.066 30.54V30.34C182.066 29.74 181.873 29.2667 181.486 28.92C181.1 28.5733 180.593 28.4 179.966 28.4H177.106V32.48Z"
    fill="white" />
  <path d="M186.617 40V26H189.137V40H186.617Z" fill="white" />
  <path
    d="M195.009 40.28C194.303 40.28 193.669 40.16 193.109 39.92C192.549 39.6667 192.103 39.3067 191.769 38.84C191.449 38.36 191.289 37.78 191.289 37.1C191.289 36.42 191.449 35.8533 191.769 35.4C192.103 34.9333 192.556 34.5867 193.129 34.36C193.716 34.12 194.383 34 195.129 34H197.849V33.44C197.849 32.9733 197.703 32.5933 197.409 32.3C197.116 31.9933 196.649 31.84 196.009 31.84C195.383 31.84 194.916 31.9867 194.609 32.28C194.303 32.56 194.103 32.9267 194.009 33.38L191.689 32.6C191.849 32.0933 192.103 31.6333 192.449 31.22C192.809 30.7933 193.283 30.4533 193.869 30.2C194.469 29.9333 195.196 29.8 196.049 29.8C197.356 29.8 198.389 30.1267 199.149 30.78C199.909 31.4333 200.289 32.38 200.289 33.62V37.32C200.289 37.72 200.476 37.92 200.849 37.92H201.649V40H199.969C199.476 40 199.069 39.88 198.749 39.64C198.429 39.4 198.269 39.08 198.269 38.68V38.66H197.889C197.836 38.82 197.716 39.0333 197.529 39.3C197.343 39.5533 197.049 39.78 196.649 39.98C196.249 40.18 195.703 40.28 195.009 40.28ZM195.449 38.24C196.156 38.24 196.729 38.0467 197.169 37.66C197.623 37.26 197.849 36.7333 197.849 36.08V35.88H195.309C194.843 35.88 194.476 35.98 194.209 36.18C193.943 36.38 193.809 36.66 193.809 37.02C193.809 37.38 193.949 37.6733 194.229 37.9C194.509 38.1267 194.916 38.24 195.449 38.24Z"
    fill="white" />
  <path
    d="M207.956 40.28C206.996 40.28 206.123 40.08 205.336 39.68C204.563 39.28 203.95 38.7 203.496 37.94C203.043 37.18 202.816 36.26 202.816 35.18V34.9C202.816 33.82 203.043 32.9 203.496 32.14C203.95 31.38 204.563 30.8 205.336 30.4C206.123 30 206.996 29.8 207.956 29.8C208.903 29.8 209.716 29.9667 210.396 30.3C211.076 30.6333 211.623 31.0933 212.036 31.68C212.463 32.2533 212.743 32.9067 212.876 33.64L210.436 34.16C210.383 33.76 210.263 33.4 210.076 33.08C209.89 32.76 209.623 32.5067 209.276 32.32C208.943 32.1333 208.523 32.04 208.016 32.04C207.51 32.04 207.05 32.1533 206.636 32.38C206.236 32.5933 205.916 32.92 205.676 33.36C205.45 33.7867 205.336 34.3133 205.336 34.94V35.14C205.336 35.7667 205.45 36.3 205.676 36.74C205.916 37.1667 206.236 37.4933 206.636 37.72C207.05 37.9333 207.51 38.04 208.016 38.04C208.776 38.04 209.35 37.8467 209.736 37.46C210.136 37.06 210.39 36.54 210.496 35.9L212.936 36.48C212.763 37.1867 212.463 37.8333 212.036 38.42C211.623 38.9933 211.076 39.4467 210.396 39.78C209.716 40.1133 208.903 40.28 207.956 40.28Z"
    fill="white" />
  <path
    d="M219.535 40.28C218.548 40.28 217.675 40.0733 216.915 39.66C216.168 39.2333 215.582 38.64 215.155 37.88C214.742 37.1067 214.535 36.2 214.535 35.16V34.92C214.535 33.88 214.742 32.98 215.155 32.22C215.568 31.4467 216.148 30.8533 216.895 30.44C217.642 30.0133 218.508 29.8 219.495 29.8C220.468 29.8 221.315 30.02 222.035 30.46C222.755 30.8867 223.315 31.4867 223.715 32.26C224.115 33.02 224.315 33.9067 224.315 34.92V35.78H217.095C217.122 36.46 217.375 37.0133 217.855 37.44C218.335 37.8667 218.922 38.08 219.615 38.08C220.322 38.08 220.842 37.9267 221.175 37.62C221.508 37.3133 221.762 36.9733 221.935 36.6L223.995 37.68C223.809 38.0267 223.535 38.4067 223.175 38.82C222.828 39.22 222.362 39.5667 221.775 39.86C221.188 40.14 220.442 40.28 219.535 40.28ZM217.115 33.9H221.755C221.702 33.3267 221.468 32.8667 221.055 32.52C220.655 32.1733 220.128 32 219.475 32C218.795 32 218.255 32.1733 217.855 32.52C217.455 32.8667 217.208 33.3267 217.115 33.9Z"
    fill="white" />
</svg>