<svg xmlns="http://www.w3.org/2000/svg" width="200" height="200" viewBox="0 0 200 200" fill="none">
  <g clip-path="url(#clip0_1489_11046)">
    <path fill-rule="evenodd" clip-rule="evenodd"
      d="M151.278 84.8781C162.312 98.0692 160.07 117.826 155.342 134.462C151.143 149.231 140.206 160.47 127.368 168.991C115.172 177.086 101.185 181.218 86.65 180.056C70.8026 178.79 53.4891 175.347 44.4614 162.364C35.5266 149.514 40.734 132.67 42.8725 117.097C45.1027 100.855 43.4931 81.4207 56.8921 71.8372C70.2648 62.2725 87.9379 71.027 104.152 73.2673C120.828 75.5714 140.528 72.0266 151.278 84.8781Z"
      fill="#444955" fill-opacity="0.4" />
    <path d="M115.73 104.827L109.033 111.548L133.735 136.163L140.432 129.442L115.73 104.827Z"
      fill="url(#paint0_linear_1489_11046)" />
    <path
      d="M133.807 123.792L128.065 129.554C126.853 130.77 126.857 132.738 128.073 133.949L151.064 156.86C152.28 158.072 154.248 158.068 155.46 156.853L161.201 151.091C162.413 149.875 162.41 147.907 161.194 146.695L138.202 123.784C136.986 122.573 135.018 122.576 133.807 123.792Z"
      fill="url(#paint1_linear_1489_11046)" />
    <path
      d="M110.72 52.4837C116.084 57.8303 119.742 64.6474 121.231 72.0728C122.721 79.4983 121.975 87.1986 119.088 94.2001C116.201 101.202 111.303 107.19 105.013 111.408C98.7226 115.626 91.3231 117.883 83.7497 117.896C76.1764 117.908 68.7694 115.675 62.4654 111.478C56.1614 107.281 51.2435 101.309 48.3335 94.3169C45.4236 87.325 44.6523 79.6271 46.1171 72.1968C47.582 64.7665 51.2172 57.9374 56.5632 52.5731C60.1128 49.0103 64.3296 46.1818 68.9727 44.249C73.6157 42.3163 78.5941 41.3173 83.6233 41.309C88.6525 41.3007 93.6342 42.2833 98.2836 44.2007C102.933 46.118 107.159 48.9326 110.72 52.4837Z"
      fill="#D7DEEA" />
    <path
      d="M117.239 61.1403C122.101 69.989 123.275 80.3983 120.507 90.1076C117.738 99.8168 111.251 108.042 102.455 112.997L117.239 61.1403Z"
      fill="#C8CCD6" />
    <path
      d="M84.0676 41.3171L63.8124 112.339C58.2163 108.94 53.5837 104.164 50.3558 98.4673L65.2922 46.0331C71.0436 42.8794 77.5086 41.2556 84.0676 41.3171Z"
      fill="#C8CCD6" />
    <path
      d="M107.901 49.9275L88.6093 117.579C86.1188 117.897 83.6032 117.971 81.0983 117.801L101.637 45.7668C103.861 46.9376 105.959 48.3317 107.901 49.9275Z"
      fill="#C8CCD6" />
    <path
      d="M89.2906 41.7317L68.4731 114.748C68.0458 114.565 67.622 114.371 67.208 114.175L87.912 41.5509C88.3698 41.5997 88.8333 41.6527 89.2906 41.7317Z"
      fill="#C8CCD6" />
    <path
      d="M55.244 53.9717L46.0018 86.3664C45.7933 85.2396 45.643 84.0993 45.5474 82.9562L53.0602 56.5974C53.7418 55.7021 54.4662 54.8257 55.244 53.9717Z"
      fill="#C8CCD6" />
    <path
      d="M89.8935 122.396C81.4299 123.623 72.7923 122.313 65.0732 118.631C57.3542 114.95 50.9003 109.061 46.5277 101.712C42.1552 94.3617 40.0604 85.8802 40.5083 77.3398C40.9561 68.7993 43.9265 60.5834 49.0438 53.7312C54.1611 46.879 61.1955 41.6981 69.2573 38.8438C77.3191 35.9895 86.0463 35.59 94.3352 37.6958C102.624 39.8016 110.102 44.318 115.824 50.6741C121.546 57.0301 125.255 64.9402 126.481 73.404C128.112 84.7504 125.176 96.2803 118.317 105.465C111.458 114.649 101.236 120.738 89.8935 122.396ZM78.1948 41.7177C70.7018 42.8043 63.6992 46.0882 58.0726 51.1545C52.4459 56.2207 48.4479 62.8416 46.584 70.1799C44.7201 77.5183 45.0741 85.2446 47.6012 92.3818C50.1283 99.5189 54.7151 105.747 60.7814 110.277C66.8478 114.807 74.1213 117.437 81.6823 117.834C89.2432 118.231 96.7521 116.377 103.259 112.506C109.767 108.635 114.98 102.922 118.24 96.0887C121.5 89.2553 122.661 81.6085 121.576 74.1153C120.109 64.0715 114.717 55.0197 106.585 48.946C98.4518 42.8724 88.2419 40.2728 78.1948 41.7177Z"
      fill="url(#paint2_linear_1489_11046)" />
    <circle cx="112.142" cy="30.7143" r="2.85714" fill="#444955" fill-opacity="0.4" />
    <circle cx="137.5" cy="40.3571" r="4.64286" fill="#444955" fill-opacity="0.4" />
  </g>
  <defs>
    <linearGradient id="paint0_linear_1489_11046" x1="112.382" y1="108.188" x2="137.083" y2="132.803"
      gradientUnits="userSpaceOnUse">
      <stop stopColor="#73777F" />
      <stop offset="1" stopColor="#464F61" />
    </linearGradient>
    <linearGradient id="paint1_linear_1489_11046" x1="130.936" y1="126.673" x2="158.331" y2="153.972"
      gradientUnits="userSpaceOnUse">
      <stop stopColor="#464C59" />
      <stop offset="1" stopColor="#292D35" />
    </linearGradient>
    <linearGradient id="paint2_linear_1489_11046" x1="77.4835" y1="36.8121" x2="89.8935" y2="122.396"
      gradientUnits="userSpaceOnUse">
      <stop stopColor="#464C59" />
      <stop offset="1" stopColor="#292D35" />
    </linearGradient>
    <clipPath id="clip0_1489_11046">
      <rect width="200" height="200" fill="white" />
    </clipPath>
  </defs>
</svg>