<svg xmlns="http://www.w3.org/2000/svg" width="48" height="48" viewBox="0 0 48 48" fill="none">
  <g clip-path="url(#clip0_255_15100)">
    <rect width="48" height="48" rx="24" fill="#1E2026" />
    <mask id="mask0_255_15100" style="mask-type:alpha" maskUnits="userSpaceOnUse" x="8" y="8" width="32" height="32">
      <rect x="8" y="8" width="32" height="32" fill="#D9D9D9" />
    </mask>
    <g mask="url(#mask0_255_15100)">
      <path
        d="M23.638 36.6536C21.9354 36.6057 20.3347 36.242 18.8359 35.5625C17.337 34.8831 16.034 33.9755 14.9269 32.8399C13.8198 31.7043 12.9439 30.3765 12.2991 28.8566C11.6544 27.3366 11.332 25.718 11.332 24.0006C11.332 22.2502 11.6649 20.6045 12.3308 19.0635C12.9966 17.5224 13.8996 16.1818 15.0397 15.0417C16.1799 13.9015 17.5205 12.9985 19.0615 12.3327C20.6025 11.6669 22.2482 11.334 23.9987 11.334C27.2078 11.334 29.9878 12.3678 32.3388 14.4353C34.6898 16.5028 36.085 19.081 36.5243 22.1699H34.8218C34.5175 20.2764 33.7756 18.5794 32.5961 17.0789C31.4166 15.5783 29.9218 14.4633 28.1115 13.734V14.3288C28.1115 15.0861 27.8481 15.7387 27.3213 16.2865C26.7945 16.8344 26.1525 17.1083 25.3952 17.1083H22.6158V19.8878C22.6158 20.2656 22.4774 20.58 22.2008 20.831C21.9242 21.082 21.5969 21.2074 21.2192 21.2074H18.5029V24.0006H21.5542V28.0776H19.8858L13.2876 21.4878C13.2027 21.906 13.1347 22.3234 13.0837 22.7399C13.0327 23.1565 13.0072 23.5767 13.0072 24.0006C13.0072 26.9539 14.0249 29.4975 16.0602 31.6314C18.0955 33.7653 20.6215 34.881 23.638 34.9784V36.6536ZM35.5901 35.4382L31.6474 31.5347C31.2149 31.843 30.7454 32.0818 30.2388 32.251C29.7323 32.4202 29.2078 32.5049 28.6653 32.5049C27.226 32.5049 26.0044 32.0029 25.0004 30.9989C23.9964 29.9949 23.4944 28.7733 23.4944 27.334C23.4944 25.8946 23.9964 24.673 25.0004 23.669C26.0044 22.665 27.226 22.1631 28.6653 22.1631C30.1046 22.1631 31.3263 22.665 32.3303 23.669C33.3342 24.673 33.8362 25.8946 33.8362 27.334C33.8362 27.885 33.7472 28.4159 33.5691 28.9267C33.3911 29.4375 33.1482 29.9137 32.8405 30.3553L36.7696 34.2588C36.9388 34.4194 37.0257 34.6139 37.0303 34.842C37.0348 35.0702 36.9525 35.2735 36.7833 35.4519C36.6226 35.6125 36.4259 35.6906 36.1931 35.6861C35.9603 35.6815 35.7594 35.5989 35.5901 35.4382ZM28.6653 30.8297C29.6408 30.8297 30.4673 30.4909 31.1448 29.8135C31.8223 29.1359 32.1611 28.3094 32.1611 27.334C32.1611 26.3585 31.8223 25.532 31.1448 24.8545C30.4673 24.177 29.6408 23.8382 28.6653 23.8382C27.6898 23.8382 26.8633 24.177 26.1858 24.8545C25.5083 25.532 25.1696 26.3585 25.1696 27.334C25.1696 28.3094 25.5083 29.1359 26.1858 29.8135C26.8633 30.4909 27.6898 30.8297 28.6653 30.8297Z"
        fill="#F7F7F8" />
    </g>
  </g>
  <defs>
    <clipPath id="clip0_255_15100">
      <rect width="48" height="48" fill="white" />
    </clipPath>
  </defs>
</svg>